<?xml version="1.0" encoding="UTF-8"?>
<!-- Generator: Adobe Illustrator 18.1.1, SVG Export Plug-In . SVG Version: 6.00 Build 0)  -->
<!DOCTYPE svg PUBLIC "-//W3C//DTD SVG 1.1//EN" "http://www.w3.org/Graphics/SVG/1.1/DTD/svg11.dtd">
<svg version="1.1" id="Layer_1" xmlns="http://www.w3.org/2000/svg" xmlns:xlink="http://www.w3.org/1999/xlink" x="0px" y="0px" viewBox="0 150 600 300" enable-background="new 0 0 600 600" xml:space="preserve">
<g>
	<path fill="#FF9933" d="M78.6,426.4v4.9c0,1.1-0.4,1.8-1.8,1.8H59.1c-1.4,0-1.8-0.7-1.8-1.8v-4.9c0-1.1,0.4-1.8,1.8-1.8h3.9v-23.8   h-3.8c-1.4,0-1.8-0.7-1.8-1.8v-5c0-1.1,0.4-1.8,1.8-1.8h17.3c1.4,0,1.8,0.7,1.8,1.8v5c0,1.1-0.4,1.8-1.8,1.8h-3.7v23.8h3.9   C78.2,424.6,78.6,425.3,78.6,426.4z"/>
	<path fill="#FF9933" d="M119.8,394v37.3c0,1.1-0.4,1.8-1.8,1.8h-5.7c-1.6,0-2-0.9-2.8-2.1l-13.2-21.3v21.7c0,1.4-0.7,1.8-1.8,1.8   h-6.2c-1.1,0-1.8-0.4-1.8-1.8V394c0-1.1,0.4-1.8,1.8-1.8h5.9c1.6,0,2,0.9,2.8,2.1l13.2,21.3V394c0-1.4,0.7-1.8,1.8-1.8h6   C119.1,392.2,119.8,392.6,119.8,394z"/>
	<path fill="#FF9933" d="M161.5,406.2v12.9c0,9.8-9.3,14-16.7,14h-13.9c-1.4,0-1.8-0.7-1.8-1.8V394c0-1.1,0.4-1.8,1.8-1.8h13.9   C152.2,392.2,161.5,396.5,161.5,406.2z M151.7,407.1c0-3.9-2.9-6.2-7-6.2h-6v23.7h6c4.1,0,7-2.2,7-6.2V407.1z"/>
	<path fill="#FF9933" d="M189.1,426.4v4.9c0,1.1-0.4,1.8-1.8,1.8h-17.6c-1.4,0-1.8-0.7-1.8-1.8v-4.9c0-1.1,0.4-1.8,1.8-1.8h3.9   v-23.8h-3.8c-1.4,0-1.8-0.7-1.8-1.8v-5c0-1.1,0.4-1.8,1.8-1.8h17.3c1.4,0,1.8,0.7,1.8,1.8v5c0,1.1-0.4,1.8-1.8,1.8h-3.7v23.8h3.9   C188.7,424.6,189.1,425.3,189.1,426.4z"/>
	<path fill="#FF9933" d="M231.3,433.2h-6.5c-1.4,0-1.9-0.4-2.4-1.9l-1.7-4.9h-15.2l-1.7,4.9c-0.5,1.5-1,1.9-2.4,1.9h-6.5   c-1.4,0-1.4-1-1.1-1.7l13.8-37.3c0.5-1.3,1.2-1.9,2.6-1.9h6c1.4,0,2,0.6,2.6,1.9l13.8,37.3C232.7,432.2,232.7,433.2,231.3,433.2z    M217.7,417.7l-4.7-13.8l-4.7,13.8H217.7z"/>
	<path fill="#FF9933" d="M271.1,394v37.3c0,1.1-0.4,1.8-1.8,1.8h-5.7c-1.6,0-2-0.9-2.8-2.1l-13.2-21.3v21.7c0,1.4-0.7,1.8-1.8,1.8   h-6.2c-1.1,0-1.8-0.4-1.8-1.8V394c0-1.1,0.4-1.8,1.8-1.8h5.9c1.6,0,2,0.9,2.8,2.1l13.2,21.3V394c0-1.4,0.7-1.8,1.8-1.8h6   C270.4,392.2,271.1,392.6,271.1,394z"/>
	<path fill="#669933" d="M329.3,406.7c0,8.7-5.7,14.4-16.4,14.4h-6v10.3c0,1.4-0.7,1.8-1.8,1.8H299c-1.1,0-1.8-0.4-1.8-1.8V394   c0-1.1,0.4-1.8,1.8-1.8h14C323.7,392.2,329.3,398.1,329.3,406.7z M319.9,406.8c0-3.2-2.1-5.9-7-5.9h-6v11.6h6   C317.8,412.6,319.9,410,319.9,406.8z"/>
	<path fill="#669933" d="M355.9,426.4v4.9c0,1.1-0.4,1.8-1.8,1.8h-17.6c-1.4,0-1.8-0.7-1.8-1.8v-4.9c0-1.1,0.4-1.8,1.8-1.8h3.9   v-23.8h-3.8c-1.4,0-1.8-0.7-1.8-1.8v-5c0-1.1,0.4-1.8,1.8-1.8h17.3c1.4,0,1.8,0.7,1.8,1.8v5c0,1.1-0.4,1.8-1.8,1.8h-3.7v23.8h3.9   C355.5,424.6,355.9,425.3,355.9,426.4z"/>
	<path fill="#669933" d="M396.5,433.2h-7.3c-1.5,0-2.2-0.6-3.1-1.9l-6.7-10c-0.6-0.7-0.7-1.4-0.7-3.2v-5c0-1.1,0.4-1.8,1.8-1.8h1.2   c3,0,5.9-2.1,5.9-5c0-3.2-2.5-5.3-5.7-5.3h-8.3v30.4c0,1.4-0.7,1.8-1.8,1.8h-6.2c-1.1,0-1.7-0.4-1.7-1.8v-37.3   c0-1.1,0.3-1.8,1.7-1.8h15.7c6.8,0,9.8,1.4,12.4,4c2.3,2.2,3.6,5.8,3.6,9.8c0,6.5-4.8,11.1-8.7,12.4l8.8,12.8   C398,432,397.7,433.2,396.5,433.2z"/>
	<path fill="#669933" d="M439.5,433.2H433c-1.4,0-1.9-0.4-2.4-1.9l-1.7-4.9h-15.2l-1.7,4.9c-0.5,1.5-1,1.9-2.4,1.9H403   c-1.4,0-1.4-1-1.1-1.7l13.8-37.3c0.5-1.3,1.2-1.9,2.6-1.9h6c1.4,0,2,0.6,2.6,1.9l13.8,37.3C440.9,432.2,440.9,433.2,439.5,433.2z    M426,417.7l-4.7-13.8l-4.7,13.8H426z"/>
	<path fill="#669933" d="M473,394v5.2c0,1.1-0.4,1.8-1.8,1.8h-9.5v30.4c0,1.4-0.7,1.8-1.8,1.8h-6.2c-1.1,0-1.8-0.4-1.8-1.8V401h-9.6   c-1.4,0-1.8-0.7-1.8-1.8V394c0-1.1,0.4-1.8,1.8-1.8h28.9C472.6,392.2,473,392.9,473,394z"/>
	<path fill="#669933" d="M510.7,426.3v5.1c0,1.1-0.4,1.8-1.8,1.8H481c-1.4,0-1.8-0.7-1.8-1.8V394c0-1.1,0.4-1.8,1.8-1.8h26.8   c1.4,0,1.8,0.7,1.8,1.8v5.2c0,1.1-0.4,1.8-1.8,1.8h-18.8v6.8h16.7c1.4,0,1.8,0.7,1.8,1.8v4.9c0,1.1-0.4,1.8-1.8,1.8h-16.7v8.2h19.9   C510.4,424.5,510.7,425.1,510.7,426.3z"/>
	<path fill="#669933" d="M549.3,421c0,8.8-7,13.1-16.6,13.1c-7.8,0-16.7-4.5-16.7-13.2c0-1.4,0.4-1.7,1.8-1.7h6   c1.4,0,2.1,0.2,2.2,1.7c0.1,0.8,0.4,1.6,1.2,2.6c1.2,1.5,3.8,2.1,6.1,2.1c3.4,0,6.1-0.7,6.1-4.2s-5.5-3.5-10.8-5.2   c-6.3-2-12.1-4.5-12.1-12.4c0-8.1,7.3-12.1,15.1-12.4c7.9,0,16.6,3.6,16.6,11.8c0,1.5-0.4,1.7-1.8,1.7h-6.1c-1.2,0-1.4-0.9-1.7-1.7   c-0.2-0.6-0.6-1.1-1.3-1.9c-1.2-1.1-3.4-1.7-5.3-1.7c-2.1,0-5.5,0.8-5.5,3.6c0,3.8,9.1,5.2,11.6,6.2   C542.7,410.8,549.3,412.6,549.3,421z"/>
</g>
<path fill="none" d="M296.6,327.3c16,17.5,39,28.5,64.5,28.5c48.1,0,87.3-39.2,87.3-87.3s-39.2-87.3-87.3-87.3  c-25.5,0-48.5,11-64.5,28.5c12.3,16.4,19.6,36.7,19.6,58.8C316.2,290.5,308.9,310.9,296.6,327.3z"/>
<path fill="#669933" d="M361,170.4c-28.2,0-53.6,11.9-71.5,30.9c2.5,2.6,4.8,5.4,7,8.3c16-17.5,39-28.5,64.5-28.5  c48.1,0,87.3,39.2,87.3,87.3s-39.2,87.3-87.3,87.3c-25.5,0-48.5-11-64.5-28.5c-2.2,2.9-4.5,5.7-7,8.3c17.9,19,43.3,30.9,71.5,30.9  c54.2,0,98.1-43.9,98.1-98.1C459.1,214.3,415.2,170.4,361,170.4z"/>
<path fill="#FF9933" d="M305.4,268.5c0,18.6-5.9,35.9-15.8,50.1c2.1,3.1,4.5,6,7,8.7c12.3-16.4,19.6-36.7,19.6-58.8  c0-22.1-7.3-42.4-19.6-58.8c-2.5,2.8-4.8,5.7-7,8.7C299.6,232.6,305.4,249.8,305.4,268.5z"/>
<path fill="#FF9933" d="M218.1,355.8c-48.1,0-87.3-39.2-87.3-87.3s39.2-87.3,87.3-87.3c25.5,0,48.5,11,64.5,28.5  c2.2-2.9,4.5-5.7,7-8.3c-17.9-19-43.3-30.9-71.5-30.9c-54.2,0-98.1,43.9-98.1,98.1c0,54.2,43.9,98.1,98.1,98.1  c28.2,0,53.6-11.9,71.5-30.9c-2.5-2.6-4.8-5.4-7-8.3C266.6,344.8,243.6,355.8,218.1,355.8z"/>
<path fill="#FF9933" d="M289.6,318.6c-2.1,3.1-4.5,6-7,8.7c2.2,2.9,4.5,5.7,7,8.3c2.5-2.6,4.8-5.4,7-8.3  C294.1,324.5,291.7,321.6,289.6,318.6z"/>
<path fill="#FF9933" d="M289.6,218.4c2.1-3.1,4.5-6,7-8.7c-2.2-2.9-4.5-5.7-7-8.3c-2.5,2.6-4.8,5.4-7,8.3  C285.1,212.4,287.4,215.3,289.6,218.4z"/>
<g>
	<rect x="328.5" y="197.4" fill="#669933" width="8.7" height="106.8"/>
	<path fill="#669933" d="M337.5,290.5c8.5-7.2,25-13.8,28.1-28.3c6.1-29.1-12.2-41.8-28.1-44.9c-2.1-0.5-6.5-1.2-8.7-1.3   c-3.7-0.4-6.8,0-8.8,0.6c-0.6-1.2,2.8-3.2,8.8-4.9c2.5-0.8,6.4-1.7,8.7-2.2c31.4-7.2,94.3-6.9,94.6,47.5   c0.2,38.4-67.9,32.5-87.6,45c-21.5,13.5-11.8,42.1-11.8,42.1s-15.3-28.2-3.9-44.3C330.3,297,334.9,292.4,337.5,290.5z"/>
</g>
<g>
	<path fill="#FF9933" d="M269.4,283.5c0,0-1-3.6-2.2,1.1c-1.2,4.7-6.4,14.1-13.3,17c-7,2.9,4,2.6,5.7,2.2c1.7-0.5,1.7,1.8-2.9,5.7   c-4.5,3.9-16.6,11.9-24.6,6.6c0,0-5.2-2.6-5.3-10.6c-0.1-8-0.5-67-0.5-67h7.7c0,0,2.2,1.8,5.2-1c2.9-2.8,8.4-1.6,10.3-2   c1.9-0.4,3.7-10.6-0.5-11.2c-4.2-0.6-8.2-1.8-8.8-2.1c-0.6-0.3-3.8-2.1-6-1l-8.5,0v-5.3c3.9-2.7,6.5-7.2,6.5-12.3   c0-8.2-6.6-14.8-14.8-14.8c-8.2,0-14.8,6.6-14.8,14.8c0,5.6,3.2,10.5,7.8,13v4.5h-8.2c-2.3-1.1-5.7,0.7-6.2,1.1   c-0.6,0.3-4.6,1.5-8.8,2.1c-4.2,0.6-2.4,10.8-0.5,11.2c1.9,0.4,7.4-0.8,10.3,2c2.9,2.8,5.2,1,5.2,1h7.7c0,0-0.5,59-0.5,67   c0,8-5.3,10.6-5.3,10.6c-8,5.3-20.1-2.7-24.6-6.6c-4.5-3.9-4.5-6.1-2.9-5.7c1.7,0.5,12.7,0.7,5.7-2.2c-7-2.9-12.2-12.3-13.4-17   c-1.2-4.7-2.2-1.1-2.2-1.1c-3.4,8-3.1,17.6-0.8,25.5c2.3,7.9,3.6,3.5,4.4,1.3c0.8-2.2,1.5-1.5,1.5-1.5c2.2,8.1,15.7,20.3,27.3,24.8   c11.6,4.5,18.9,14.4,18.9,14.4s7.4-9.9,18.9-14.4c11.6-4.5,25.2-16.8,27.3-24.8c0,0,0.7-0.7,1.4,1.5c0.8,2.2,2.1,6.6,4.4-1.3   C272.5,301.1,272.8,291.6,269.4,283.5z M217.4,212.8c-5.1,0-9.2-4.1-9.2-9.2c0-5.1,4.1-9.2,9.2-9.2c5.1,0,9.2,4.1,9.2,9.2   C226.6,208.7,222.5,212.8,217.4,212.8z"/>
</g>
</svg>
